<?xml version="1.0" standalone="no"?>
<!DOCTYPE svg PUBLIC "-//W3C//DTD SVG 20010904//EN"
 "http://www.w3.org/TR/2001/REC-SVG-20010904/DTD/svg10.dtd">
<svg version="1.0" xmlns="http://www.w3.org/2000/svg"
 width="300.000000pt" height="300.000000pt" viewBox="0 0 300.000000 300.000000"
 preserveAspectRatio="xMidYMid meet">

<g transform="translate(0.000000,300.000000) scale(0.100000,-0.100000)"
fill="#000000" stroke="none">
<path d="M1360 2939 c-530 -48 -1001 -392 -1210 -882 -158 -372 -158 -782 0
-1154 247 -577 850 -940 1470 -883 355 33 666 177 914 425 276 276 426 641
426 1035 0 764 -571 1388 -1335 1460 -120 11 -139 11 -265 -1z m456 -102 c277
-70 501 -200 691 -401 354 -374 474 -905 313 -1387 -69 -209 -163 -367 -313
-525 -190 -201 -415 -331 -691 -400 -125 -31 -375 -44 -507 -25 -600 85 -1079
546 -1185 1141 -22 127 -22 353 0 480 93 522 486 958 991 1100 148 42 219 49
415 46 157 -4 200 -8 286 -29z"/>
<path d="M1484 2610 c-11 -4 -67 -57 -125 -118 -88 -93 -116 -115 -185 -150
-55 -28 -95 -56 -124 -89 -84 -96 -223 -422 -265 -628 -32 -151 -17 -445 35
-705 31 -152 88 -252 260 -456 43 -50 82 -99 87 -109 31 -55 187 106 248 255
11 27 20 82 22 140 5 91 1 136 -32 319 -14 80 -14 87 8 175 18 74 21 113 19
206 -8 295 -13 256 41 339 l47 75 0 106 c0 84 -6 129 -26 206 -41 154 -41 150
7 224 74 114 95 180 67 208 -14 14 -53 15 -84 2z"/>
<path d="M1589 2478 c-13 -29 -41 -75 -61 -102 -21 -28 -38 -54 -38 -59 0 -5
9 -40 21 -77 l21 -69 43 -6 c95 -15 139 -69 138 -171 -1 -69 -28 -142 -71
-187 -15 -16 -62 -46 -104 -68 -89 -45 -95 -57 -82 -147 8 -61 10 -199 3 -348
l-4 -91 37 -54 c62 -90 196 -236 254 -278 34 -24 94 -53 150 -71 69 -23 108
-43 141 -72 61 -53 85 -63 112 -49 39 22 63 90 81 233 12 102 1 199 -32 267
-12 24 -59 84 -105 133 -46 49 -90 103 -98 122 -8 18 -18 76 -24 128 -12 120
-28 160 -80 192 -22 14 -45 34 -51 45 -5 11 -10 66 -10 123 0 231 -55 364
-184 445 l-38 25 7 94 c4 52 5 94 3 94 -3 0 -15 -23 -29 -52z m193 -873 c56
-38 83 -103 82 -200 0 -95 -25 -155 -84 -209 -68 -62 -140 -58 -200 10 -84 96
-74 279 20 373 59 58 121 67 182 26z m284 -458 c67 -73 70 -192 7 -267 -58
-70 -131 -80 -191 -25 -81 72 -82 206 -4 289 36 38 59 47 112 42 35 -3 51 -11
76 -39z"/>
</g>
</svg>
